# xmcd
#
# Track frame offsets:
#	150
#	10400
#	21625
#	31212
#	42150
#	51837
#	61337
#	74037
#	83837
#	93350
#	107687
#	117425
#	126312
#	136437
#	147762
#	157487
#	168437
#	178237
#	187750
#	200500
#	210300
#	219862
#	234225
#	243962
#	252850
#	261637
#	274650
#	285800
#	296212
#	305387
#
# Disc length: 4194 seconds
#
# Revision: 1
# Processed by: cddbd v1.5.1PL0 Copyright (c) Steve Scherf et al.
# Submitted via: CDex 1.50Beta5
#
DISCID=c310601e
DTITLE=ベンチャーズ - カラフル・ベンチャーズ(モノ&ステレオ)
DYEAR=1999
DGENRE=Rock
TTITLE0=ブルー・ムーン
TTITLE1=イエロー・ジャケット
TTITLE2=ブルーアー・ザン・ブルー
TTITLE3=セレソローサ
TTITLE4=遥かなるアラモ
TTITLE5=ブルー・スカイ
TTITLE6=グリーンフィールズ
TTITLE7=レッド・トップ
TTITLE8=ホワイト・シルバー・サンズ
TTITLE9=イエロー・バード
TTITLE10=オレンジ・ファイヤー
TTITLE11=シルバー・シティ
TTITLE12=ブルー・ムーン
TTITLE13=イエロー・ジャケット
TTITLE14=ブルーアー・ザン・ブルー
TTITLE15=セレソローサ
TTITLE16=遥かなるアラモ
TTITLE17=ブルー・スカイ
TTITLE18=グリーンフィールズ
TTITLE19=レッド・トップ
TTITLE20=ホワイト・シルバー・サンズ
TTITLE21=イエロー・バード
TTITLE22=オレンジ・ファイヤー
TTITLE23=シルバー・シティ
TTITLE24=レディー・オブ・スペイン
TTITLE25=ジェネシス
TTITLE26=インスタント・マッシュト
TTITLE27=ルシール
TTITLE28=2000パウンド・ビー
TTITLE29=2000パウンド・ビー
EXTD=
EXTT0=
EXTT1=
EXTT2=
EXTT3=
EXTT4=
EXTT5=
EXTT6=
EXTT7=
EXTT8=
EXTT9=
EXTT10=
EXTT11=
EXTT12=
EXTT13=
EXTT14=
EXTT15=
EXTT16=
EXTT17=
EXTT18=
EXTT19=
EXTT20=
EXTT21=
EXTT22=
EXTT23=
EXTT24=
EXTT25=
EXTT26=
EXTT27=
EXTT28=
EXTT29=
PLAYORDER=
